<mxfile host="app.diagrams.net" agent="Mozilla/5.0 (Windows NT 10.0; Win64; x64) AppleWebKit/537.36 (KHTML, like Gecko) Chrome/135.0.0.0 Safari/537.36" version="26.2.14">
  <diagram name="Page-1" id="K9AmFnJto01Xz-iy1Ng0">
    <mxGraphModel dx="1744" dy="930" grid="1" gridSize="10" guides="1" tooltips="1" connect="1" arrows="1" fold="1" page="1" pageScale="1" pageWidth="850" pageHeight="1100" math="0" shadow="0">
      <root>
        <mxCell id="0" />
        <mxCell id="1" parent="0" />
        <mxCell id="70TZei4bx76Ny9Q7cEXE-1" value="" style="rounded=0;whiteSpace=wrap;html=1;" vertex="1" parent="1">
          <mxGeometry x="207.5" y="255" width="532.5" height="975" as="geometry" />
        </mxCell>
        <mxCell id="70TZei4bx76Ny9Q7cEXE-2" value="&lt;font style=&quot;font-size: 20px;&quot;&gt;&lt;b style=&quot;&quot;&gt;Fundus Image Analysis&lt;/b&gt;&lt;/font&gt;" style="text;html=1;align=center;verticalAlign=middle;whiteSpace=wrap;rounded=0;" vertex="1" parent="1">
          <mxGeometry x="340" y="270" width="225" height="30" as="geometry" />
        </mxCell>
        <mxCell id="70TZei4bx76Ny9Q7cEXE-5" value="" style="verticalLabelPosition=bottom;sketch=0;html=1;fillColor=#1ba1e2;verticalAlign=top;align=center;pointerEvents=1;shape=mxgraph.cisco_safe.design.actor_2;strokeColor=#006EAF;fontColor=#ffffff;" vertex="1" parent="1">
          <mxGeometry x="60" y="620" width="19" height="50" as="geometry" />
        </mxCell>
        <mxCell id="70TZei4bx76Ny9Q7cEXE-6" value="Patient/Users" style="text;html=1;align=center;verticalAlign=middle;whiteSpace=wrap;rounded=0;" vertex="1" parent="1">
          <mxGeometry x="39.5" y="670" width="60" height="30" as="geometry" />
        </mxCell>
        <mxCell id="70TZei4bx76Ny9Q7cEXE-7" value="&lt;b&gt;Register/SignUp&lt;/b&gt;" style="ellipse;whiteSpace=wrap;html=1;fillColor=#dae8fc;strokeColor=#6c8ebf;" vertex="1" parent="1">
          <mxGeometry x="240" y="310" width="127.5" height="40" as="geometry" />
        </mxCell>
        <mxCell id="70TZei4bx76Ny9Q7cEXE-12" value="&lt;b&gt;Login&lt;/b&gt;" style="ellipse;whiteSpace=wrap;html=1;fillColor=#dae8fc;strokeColor=#6c8ebf;" vertex="1" parent="1">
          <mxGeometry x="252.5" y="390" width="115" height="40" as="geometry" />
        </mxCell>
        <mxCell id="70TZei4bx76Ny9Q7cEXE-13" value="&lt;b&gt;Email Verification&lt;/b&gt;" style="ellipse;whiteSpace=wrap;html=1;fillColor=#dae8fc;strokeColor=#6c8ebf;" vertex="1" parent="1">
          <mxGeometry x="530" y="330" width="140" height="40" as="geometry" />
        </mxCell>
        <mxCell id="70TZei4bx76Ny9Q7cEXE-15" value="&lt;b&gt;Forgot Password&lt;/b&gt;" style="ellipse;whiteSpace=wrap;html=1;fillColor=#dae8fc;strokeColor=#6c8ebf;" vertex="1" parent="1">
          <mxGeometry x="427.5" y="470" width="120" height="40" as="geometry" />
        </mxCell>
        <mxCell id="70TZei4bx76Ny9Q7cEXE-16" value="&lt;b&gt;View Profile&lt;/b&gt;" style="ellipse;whiteSpace=wrap;html=1;fillColor=#dae8fc;strokeColor=#6c8ebf;" vertex="1" parent="1">
          <mxGeometry x="425" y="540" width="120" height="40" as="geometry" />
        </mxCell>
        <mxCell id="70TZei4bx76Ny9Q7cEXE-17" value="&lt;b&gt;Edit Profile&lt;/b&gt;" style="ellipse;whiteSpace=wrap;html=1;fillColor=#dae8fc;strokeColor=#6c8ebf;" vertex="1" parent="1">
          <mxGeometry x="427.5" y="600" width="120" height="40" as="geometry" />
        </mxCell>
        <mxCell id="70TZei4bx76Ny9Q7cEXE-18" value="&lt;b&gt;Upload Eye Images&lt;/b&gt;" style="ellipse;whiteSpace=wrap;html=1;fillColor=#dae8fc;strokeColor=#6c8ebf;" vertex="1" parent="1">
          <mxGeometry x="225" y="810" width="130" height="40" as="geometry" />
        </mxCell>
        <mxCell id="70TZei4bx76Ny9Q7cEXE-19" value="&lt;b&gt;&amp;nbsp;Search Doctor&amp;nbsp;&lt;/b&gt;" style="ellipse;whiteSpace=wrap;html=1;fillColor=#dae8fc;strokeColor=#6c8ebf;" vertex="1" parent="1">
          <mxGeometry x="243.75" y="460" width="120" height="40" as="geometry" />
        </mxCell>
        <mxCell id="70TZei4bx76Ny9Q7cEXE-21" value="&lt;b&gt;View Doctor Profile&lt;/b&gt;" style="ellipse;whiteSpace=wrap;html=1;fillColor=#dae8fc;strokeColor=#6c8ebf;" vertex="1" parent="1">
          <mxGeometry x="420" y="1000" width="135" height="40" as="geometry" />
        </mxCell>
        <mxCell id="70TZei4bx76Ny9Q7cEXE-23" value="&lt;b&gt;Book Appointment&lt;/b&gt;" style="ellipse;whiteSpace=wrap;html=1;fillColor=#dae8fc;strokeColor=#6c8ebf;" vertex="1" parent="1">
          <mxGeometry x="242.5" y="900" width="135" height="40" as="geometry" />
        </mxCell>
        <mxCell id="70TZei4bx76Ny9Q7cEXE-24" value="&lt;b&gt;View Appointments&lt;/b&gt;" style="ellipse;whiteSpace=wrap;html=1;fillColor=#dae8fc;strokeColor=#6c8ebf;" vertex="1" parent="1">
          <mxGeometry x="425" y="722.5" width="135" height="40" as="geometry" />
        </mxCell>
        <mxCell id="70TZei4bx76Ny9Q7cEXE-25" value="&lt;b&gt;Cancel Appointments&lt;/b&gt;" style="ellipse;whiteSpace=wrap;html=1;fillColor=#dae8fc;strokeColor=#6c8ebf;" vertex="1" parent="1">
          <mxGeometry x="412.5" y="780" width="160" height="40" as="geometry" />
        </mxCell>
        <mxCell id="70TZei4bx76Ny9Q7cEXE-26" value="&lt;b&gt;View Diagnosis Report&lt;/b&gt;" style="ellipse;whiteSpace=wrap;html=1;fillColor=#dae8fc;strokeColor=#6c8ebf;" vertex="1" parent="1">
          <mxGeometry x="517.5" y="920" width="160" height="40" as="geometry" />
        </mxCell>
        <mxCell id="70TZei4bx76Ny9Q7cEXE-27" value="&lt;b&gt;Read Blogs&lt;/b&gt;" style="ellipse;whiteSpace=wrap;html=1;fillColor=#dae8fc;strokeColor=#6c8ebf;" vertex="1" parent="1">
          <mxGeometry x="300" y="1060" width="120" height="40" as="geometry" />
        </mxCell>
        <mxCell id="70TZei4bx76Ny9Q7cEXE-28" value="&lt;table&gt;&lt;tbody&gt;&lt;tr&gt;&lt;td data-col-size=&quot;sm&quot; data-end=&quot;2224&quot; data-start=&quot;2189&quot;&gt;&lt;b&gt;Search Blogs&lt;/b&gt;&lt;/td&gt;&lt;/tr&gt;&lt;/tbody&gt;&lt;/table&gt;&lt;table&gt;&lt;tbody&gt;&lt;tr&gt;&lt;td data-col-size=&quot;md&quot; data-end=&quot;2306&quot; data-start=&quot;2224&quot;&gt;&lt;/td&gt;&lt;/tr&gt;&lt;/tbody&gt;&lt;/table&gt;" style="ellipse;whiteSpace=wrap;html=1;fillColor=#dae8fc;strokeColor=#6c8ebf;" vertex="1" parent="1">
          <mxGeometry x="220" y="1170" width="120" height="40" as="geometry" />
        </mxCell>
        <mxCell id="70TZei4bx76Ny9Q7cEXE-30" value="&lt;b&gt;Comment on Blogs&lt;/b&gt;" style="ellipse;whiteSpace=wrap;html=1;fillColor=#dae8fc;strokeColor=#6c8ebf;" vertex="1" parent="1">
          <mxGeometry x="382.5" y="1180" width="135" height="40" as="geometry" />
        </mxCell>
        <mxCell id="70TZei4bx76Ny9Q7cEXE-32" value="&lt;b&gt;Logout&lt;/b&gt;" style="ellipse;whiteSpace=wrap;html=1;fillColor=#dae8fc;strokeColor=#6c8ebf;" vertex="1" parent="1">
          <mxGeometry x="437.5" y="660" width="100" height="40" as="geometry" />
        </mxCell>
        <mxCell id="70TZei4bx76Ny9Q7cEXE-36" value="&amp;lt;&amp;lt;include&amp;gt;&amp;gt;" style="html=1;verticalAlign=bottom;labelBackgroundColor=none;endArrow=open;endFill=0;dashed=1;rounded=0;exitX=1;exitY=0.5;exitDx=0;exitDy=0;entryX=0.005;entryY=0.334;entryDx=0;entryDy=0;entryPerimeter=0;" edge="1" parent="1" source="70TZei4bx76Ny9Q7cEXE-7" target="70TZei4bx76Ny9Q7cEXE-13">
          <mxGeometry width="160" relative="1" as="geometry">
            <mxPoint x="360" y="390" as="sourcePoint" />
            <mxPoint x="520" y="390" as="targetPoint" />
          </mxGeometry>
        </mxCell>
        <mxCell id="70TZei4bx76Ny9Q7cEXE-37" value="&amp;lt;&amp;lt;include&amp;gt;&amp;gt;" style="html=1;verticalAlign=bottom;labelBackgroundColor=none;endArrow=open;endFill=0;dashed=1;rounded=0;exitX=1;exitY=0.5;exitDx=0;exitDy=0;entryX=0;entryY=1;entryDx=0;entryDy=0;" edge="1" parent="1" source="70TZei4bx76Ny9Q7cEXE-12" target="70TZei4bx76Ny9Q7cEXE-13">
          <mxGeometry width="160" relative="1" as="geometry">
            <mxPoint x="400" y="370" as="sourcePoint" />
            <mxPoint x="530" y="400" as="targetPoint" />
          </mxGeometry>
        </mxCell>
        <mxCell id="70TZei4bx76Ny9Q7cEXE-38" value="&amp;lt;&amp;lt;include&amp;gt;&amp;gt;" style="html=1;verticalAlign=bottom;labelBackgroundColor=none;endArrow=open;endFill=0;dashed=1;rounded=0;exitX=0.769;exitY=0.97;exitDx=0;exitDy=0;exitPerimeter=0;entryX=0;entryY=0;entryDx=0;entryDy=0;" edge="1" parent="1" source="70TZei4bx76Ny9Q7cEXE-23" target="70TZei4bx76Ny9Q7cEXE-21">
          <mxGeometry width="160" relative="1" as="geometry">
            <mxPoint x="393" y="440" as="sourcePoint" />
            <mxPoint x="540" y="410" as="targetPoint" />
          </mxGeometry>
        </mxCell>
        <mxCell id="70TZei4bx76Ny9Q7cEXE-40" value="&amp;lt;&amp;lt;include&amp;gt;&amp;gt;" style="html=1;verticalAlign=bottom;labelBackgroundColor=none;endArrow=open;endFill=0;dashed=1;rounded=0;exitX=1;exitY=1;exitDx=0;exitDy=0;" edge="1" parent="1" source="70TZei4bx76Ny9Q7cEXE-18" target="70TZei4bx76Ny9Q7cEXE-26">
          <mxGeometry width="160" relative="1" as="geometry">
            <mxPoint x="494" y="849" as="sourcePoint" />
            <mxPoint x="575" y="916" as="targetPoint" />
          </mxGeometry>
        </mxCell>
        <mxCell id="70TZei4bx76Ny9Q7cEXE-42" value="&amp;lt;&amp;lt;extend&amp;gt;&amp;gt;" style="html=1;verticalAlign=bottom;labelBackgroundColor=none;endArrow=open;endFill=0;dashed=1;rounded=0;exitX=0.642;exitY=0.083;exitDx=0;exitDy=0;exitPerimeter=0;entryX=0.399;entryY=0.958;entryDx=0;entryDy=0;entryPerimeter=0;" edge="1" parent="1" source="70TZei4bx76Ny9Q7cEXE-28" target="70TZei4bx76Ny9Q7cEXE-27">
          <mxGeometry width="160" relative="1" as="geometry">
            <mxPoint x="180" y="910" as="sourcePoint" />
            <mxPoint x="340" y="910" as="targetPoint" />
          </mxGeometry>
        </mxCell>
        <mxCell id="70TZei4bx76Ny9Q7cEXE-43" value="&amp;lt;&amp;lt;extend&amp;gt;&amp;gt;" style="html=1;verticalAlign=bottom;labelBackgroundColor=none;endArrow=open;endFill=0;dashed=1;rounded=0;exitX=0.5;exitY=0;exitDx=0;exitDy=0;entryX=1;entryY=1;entryDx=0;entryDy=0;" edge="1" parent="1" source="70TZei4bx76Ny9Q7cEXE-30" target="70TZei4bx76Ny9Q7cEXE-27">
          <mxGeometry width="160" relative="1" as="geometry">
            <mxPoint x="317" y="1053" as="sourcePoint" />
            <mxPoint x="365" y="978" as="targetPoint" />
          </mxGeometry>
        </mxCell>
        <mxCell id="70TZei4bx76Ny9Q7cEXE-45" value="" style="endArrow=none;html=1;rounded=0;exitX=1;exitY=0;exitDx=0;exitDy=0;entryX=0;entryY=0.5;entryDx=0;entryDy=0;" edge="1" parent="1" source="70TZei4bx76Ny9Q7cEXE-6" target="70TZei4bx76Ny9Q7cEXE-19">
          <mxGeometry width="50" height="50" relative="1" as="geometry">
            <mxPoint x="240" y="600" as="sourcePoint" />
            <mxPoint x="290" y="550" as="targetPoint" />
          </mxGeometry>
        </mxCell>
        <mxCell id="70TZei4bx76Ny9Q7cEXE-46" value="" style="endArrow=none;html=1;rounded=0;entryX=0;entryY=0.5;entryDx=0;entryDy=0;" edge="1" parent="1" target="70TZei4bx76Ny9Q7cEXE-12">
          <mxGeometry width="50" height="50" relative="1" as="geometry">
            <mxPoint x="90" y="640" as="sourcePoint" />
            <mxPoint x="254" y="490" as="targetPoint" />
          </mxGeometry>
        </mxCell>
        <mxCell id="70TZei4bx76Ny9Q7cEXE-47" value="" style="endArrow=none;html=1;rounded=0;entryX=0;entryY=0.5;entryDx=0;entryDy=0;" edge="1" parent="1" target="70TZei4bx76Ny9Q7cEXE-7">
          <mxGeometry width="50" height="50" relative="1" as="geometry">
            <mxPoint x="90" y="640" as="sourcePoint" />
            <mxPoint x="263" y="420" as="targetPoint" />
          </mxGeometry>
        </mxCell>
        <mxCell id="70TZei4bx76Ny9Q7cEXE-48" value="" style="endArrow=none;html=1;rounded=0;exitX=1;exitY=0;exitDx=0;exitDy=0;entryX=0;entryY=0.5;entryDx=0;entryDy=0;" edge="1" parent="1" target="70TZei4bx76Ny9Q7cEXE-18">
          <mxGeometry width="50" height="50" relative="1" as="geometry">
            <mxPoint x="110" y="680" as="sourcePoint" />
            <mxPoint x="254" y="490" as="targetPoint" />
          </mxGeometry>
        </mxCell>
        <mxCell id="70TZei4bx76Ny9Q7cEXE-49" value="" style="endArrow=none;html=1;rounded=0;entryX=0;entryY=0;entryDx=0;entryDy=0;" edge="1" parent="1" source="70TZei4bx76Ny9Q7cEXE-6" target="70TZei4bx76Ny9Q7cEXE-23">
          <mxGeometry width="50" height="50" relative="1" as="geometry">
            <mxPoint x="120" y="690" as="sourcePoint" />
            <mxPoint x="235" y="840" as="targetPoint" />
          </mxGeometry>
        </mxCell>
        <mxCell id="70TZei4bx76Ny9Q7cEXE-50" value="" style="endArrow=none;html=1;rounded=0;exitX=0.25;exitY=1;exitDx=0;exitDy=0;" edge="1" parent="1" source="70TZei4bx76Ny9Q7cEXE-6" target="70TZei4bx76Ny9Q7cEXE-27">
          <mxGeometry width="50" height="50" relative="1" as="geometry">
            <mxPoint x="60" y="730" as="sourcePoint" />
            <mxPoint x="253" y="926" as="targetPoint" />
          </mxGeometry>
        </mxCell>
        <mxCell id="70TZei4bx76Ny9Q7cEXE-51" value="" style="endArrow=none;html=1;rounded=0;exitX=1;exitY=0;exitDx=0;exitDy=0;entryX=0;entryY=0.5;entryDx=0;entryDy=0;" edge="1" parent="1" target="70TZei4bx76Ny9Q7cEXE-15">
          <mxGeometry width="50" height="50" relative="1" as="geometry">
            <mxPoint x="110" y="680" as="sourcePoint" />
            <mxPoint x="254" y="490" as="targetPoint" />
          </mxGeometry>
        </mxCell>
        <mxCell id="70TZei4bx76Ny9Q7cEXE-52" value="" style="endArrow=none;html=1;rounded=0;exitX=1;exitY=0;exitDx=0;exitDy=0;entryX=0;entryY=0.5;entryDx=0;entryDy=0;" edge="1" parent="1" target="70TZei4bx76Ny9Q7cEXE-16">
          <mxGeometry width="50" height="50" relative="1" as="geometry">
            <mxPoint x="120" y="690" as="sourcePoint" />
            <mxPoint x="438" y="500" as="targetPoint" />
          </mxGeometry>
        </mxCell>
        <mxCell id="70TZei4bx76Ny9Q7cEXE-53" value="" style="endArrow=none;html=1;rounded=0;entryX=0;entryY=0.5;entryDx=0;entryDy=0;" edge="1" parent="1" target="70TZei4bx76Ny9Q7cEXE-17">
          <mxGeometry width="50" height="50" relative="1" as="geometry">
            <mxPoint x="120" y="700" as="sourcePoint" />
            <mxPoint x="435" y="570" as="targetPoint" />
          </mxGeometry>
        </mxCell>
        <mxCell id="70TZei4bx76Ny9Q7cEXE-54" value="" style="endArrow=none;html=1;rounded=0;entryX=0;entryY=0.5;entryDx=0;entryDy=0;" edge="1" parent="1" target="70TZei4bx76Ny9Q7cEXE-32">
          <mxGeometry width="50" height="50" relative="1" as="geometry">
            <mxPoint x="130" y="710" as="sourcePoint" />
            <mxPoint x="438" y="630" as="targetPoint" />
          </mxGeometry>
        </mxCell>
        <mxCell id="70TZei4bx76Ny9Q7cEXE-55" value="" style="endArrow=none;html=1;rounded=0;" edge="1" parent="1" target="70TZei4bx76Ny9Q7cEXE-24">
          <mxGeometry width="50" height="50" relative="1" as="geometry">
            <mxPoint x="140" y="720" as="sourcePoint" />
            <mxPoint x="448" y="690" as="targetPoint" />
          </mxGeometry>
        </mxCell>
        <mxCell id="70TZei4bx76Ny9Q7cEXE-56" value="" style="endArrow=none;html=1;rounded=0;entryX=0;entryY=0.5;entryDx=0;entryDy=0;" edge="1" parent="1" target="70TZei4bx76Ny9Q7cEXE-25">
          <mxGeometry width="50" height="50" relative="1" as="geometry">
            <mxPoint x="150" y="730" as="sourcePoint" />
            <mxPoint x="436" y="748" as="targetPoint" />
          </mxGeometry>
        </mxCell>
      </root>
    </mxGraphModel>
  </diagram>
</mxfile>
